# AST/ASF file generated using VICON BodyLanguage
# -----------------------------------------------
:version 1.10
:name VICON
:units
  mass 1.0
  length 0.1
  angle deg
:documentation
   .ast/.asf automatically generated from VICON data using
   VICON BodyBuilder and BodyLanguage model FULLBODY5.MOD
:root
   order TX TY TZ RZ RY RX
   axis XYZ
   position 0 0 0  
   orientation 0 -0 0 
:bonedata
  begin
     id 1 
     name lhipjoint
     direction 0.969109 -0.218487 0.11442 
     length 0.544217 
     axis 0 -0 0  XYZ
  end
  begin
     id 2 
     name lfemur
     direction 0.173648 -0.984808 0  
     length 1.81499  
     axis 0 -0 10  XYZ
    dof rx ry rz
    limits (-180.0 180.0)
           (-180.0 180.0)
           (-180.0 180.0)
  end
  begin
     id 3 
     name ltibia
     direction 0.173515 -0.984831 0   
     length 1.55296   
     axis 0 -0 10   XYZ
    dof rx ry rz
    limits (-180.0 180.0)
           (-180.0 180.0)
           (-180.0 180.0)
  end
  begin
     id 4 
     name lfoot
     direction 7.36097e-012 -0.333012 0.942922   
     length 0.509062   
     axis -90 -1.73656e-015 10   XYZ
    dof rx ry rz
    limits (-180.0 180.0)
           (-180.0 180.0)
           (-180.0 180.0)
  end
  begin
     id 5 
     name ltoes
     direction 7.7847e-012 -4.42403e-011 1   
     length 0.249732   
     axis -90 -1.73656e-015 10   XYZ
    dof rx ry rz
    limits (-180.0 180.0)
           (-180.0 180.0)
           (-180.0 180.0)
  end
  begin
     id 6 
     name rhipjoint
     direction -0.966745 -0.226554 0.118645   
     length 0.524838  
     axis 0 -0 0  XYZ 
  end
  begin
     id 7 
     name rfemur
     direction -0.173648 -0.984808 0   
     length 1.84625   
     axis 0 -0 -10   XYZ
    dof rx ry rz
    limits (-180.0 180.0)
           (-180.0 180.0)
           (-180.0 180.0)
  end
  begin
     id 8 
     name rtibia
     direction -0.173714 -0.984796 0   
     length 1.577   
     axis 0 -0 -10   XYZ
    dof rx ry rz
    limits (-180.0 180.0)
           (-180.0 180.0)
           (-180.0 180.0)
 end
 begin
     id 9 
     name rfoot
     direction -0.0183819 -0.0406144 0.999006   
     length 0.490111  
     axis -90 1.73656e-015 -10   XYZ
    dof rx ry rz
    limits (-180.0 180.0)
           (-180.0 180.0)
           (-180.0 180.0)
  end
  begin
     id 10 
     name rtoes
     direction -7.79087e-012 -4.42375e-011 1   
     length 0.245053   
     axis -90 1.73656e-015 -10   XYZ
    dof rx ry rz
    limits (-180.0 180.0)
           (-180.0 180.0)
           (-180.0 180.0)
  end
  begin
     id 11 
     name lowerback
     direction -0.0664844 0.980601 0.184393   
     length 0.458979   
     axis 0 -0 0   XYZ
    dof rx ry rz
    limits (-180.0 180.0)
           (-180.0 180.0)
           (-180.0 180.0)
  end
  begin
     id 12 
     name upperback
     direction 0.0135995 0.999573 0.02588   
     length 0.463983   
     axis 0 -0 0   XYZ
    dof rx ry rz
    limits (-180.0 180.0)
           (-180.0 180.0)
           (-180.0 180.0)
  end
  begin
     id 13 
     name thorax
     direction 0.0468402 0.997311 -0.0563691   
     length 0.482746   
     axis 0 -0 0   XYZ
    dof rx ry rz
    limits (-180.0 180.0)
           (-180.0 180.0)
           (-180.0 180.0)
  end
  begin
     id 14 
     name lowerneck
     direction -0.00174311 0.988586 -0.150647   
     length 0.364383   
     axis 0 -0 0   XYZ
    dof rx ry rz
    limits (-180.0 180.0)
           (-180.0 180.0)
           (-180.0 180.0)
  end
  begin
     id 15 
     name upperneck
     direction -0.02653 0.999379 -0.0231908   
     length 0.361006   
     axis 0 -0 0   XYZ
    dof rx ry rz
    limits (-180.0 180.0)
           (-180.0 180.0)
           (-180.0 180.0)
  end
  begin
     id 16
     name head
     direction -0.00819207 0.999941 0.00714285  
     length 0.378714  
     axis 0 -0 0   XYZ
    dof rx ry rz
    limits (-180.0 180.0)
           (-180.0 180.0)
           (-180.0 180.0)
  end
  begin
     id 17 
     name lshoulderjoint
     direction 0.981627 -0.190809 0  
     length 0.612969  
     axis 0 -0 -11   XYZ
    dof rx ry rz
    limits (-180.0 180.0)
           (-180.0 180.0)
           (-180.0 180.0)
  end
  begin
     id 18 
     name lhumerus
     direction 0.48481 -0.87462 -9.72962e-027   
     length 1.19637   
     axis -180 5.14477e-009 -151   XYZ
    dof rx ry rz
    limits (-180.0 180.0)
           (-180.0 180.0)
           (-180.0 180.0)
  end
  begin
     id 19
     name lradius
     direction 0.48481 -0.87462 -2.35761e-026   
     length 0.637735   
     axis -180 5.14477e-009 -151   XYZ
    dof rx ry rz
    limits (-180.0 180.0)
           (-180.0 180.0)
           (-180.0 180.0)
  end
  begin
     id 20
     name lwrist
     direction 0.48481 -0.87462 -5.51856e-026   
     length 0.318868   
     axis -180 5.14477e-009 -151   XYZ
    dof rx ry rz
    limits (-180.0 180.0)
           (-180.0 180.0)
           (-180.0 180.0)
  end
  begin
     id 21 
     name lhand
     direction 0.477747 -0.861928 -0.169816   
     length 0.29526   
     axis -180 5.14477e-009 -151   XYZ
    dof rx ry rz
    limits (-180.0 180.0)
           (-180.0 180.0)
           (-180.0 180.0)
  end
  begin
     id 22 
     name rshoulderjoint
     direction -0.981627 -0.190809 0   
     length 0.572347  
     axis 0 -0 11   XYZ 
    dof rx ry rz
    limits (-180.0 180.0)
           (-180.0 180.0)
           (-180.0 180.0)
  end
  begin
     id 23 
     name rhumerus
     direction -0.48481 -0.87462 1.64836e-026  
     length 1.28846   
     axis 180 5.14477e-009 151   XYZ
    dof rx ry rz
    limits (-180.0 180.0)
           (-180.0 180.0)
           (-180.0 180.0)
  end
  begin
     id 24 
     name rradius
     direction -0.48481 -0.87462 2.86827e-026   
     length 0.62107   
     axis 180 5.14477e-009 151   XYZ
    dof rx ry rz
    limits (-180.0 180.0)
           (-180.0 180.0)
           (-180.0 180.0)
  end
  begin
     id 25 
     name rwrist
     direction -0.48481 -0.87462 5.20942e-026   
     length 0.310535   
     axis 180 5.14477e-009 151   XYZ
    dof rx ry rz
    limits (-180.0 180.0)
           (-180.0 180.0)
           (-180.0 180.0)
  end
  begin
     id 26
     name rhand
     direction -0.477664 -0.861515 -0.172133   
     length 0.291321   
     axis 180 5.14477e-009 151   XYZ
    dof rx ry rz
    limits (-180.0 180.0)
           (-180.0 180.0)
           (-180.0 180.0)
  end
:hierarchy
  begin
    root lhipjoint rhipjoint lowerback 
    lhipjoint lfemur
    lfemur ltibia
    ltibia lfoot
    lfoot ltoes
    rhipjoint rfemur
    rfemur rtibia
    rtibia rfoot
    rfoot rtoes
    lowerback upperback
    upperback thorax
    thorax lowerneck lshoulderjoint rshoulderjoint
    lowerneck upperneck
    upperneck head
    lshoulderjoint lhumerus
    lhumerus lradius
    lradius lwrist
    lwrist lhand
    rshoulderjoint rhumerus
    rhumerus rradius
    rradius rwrist
    rwrist rhand
  end

:FULLY-SPECIFIED
:DEGREES
2426
root 9.18711 3.63791 0.0201801 331.107 54.2292 32.8818
lowerback -20.8455 -1.47274 -9.75007
upperback -6.14721 0.280201 1.05926
thorax 4.85368 0.251794 6.80219
lowerneck 15.284 -7.69486 -1.19642
upperneck 2.69864 -10.1606 2.95737
head -1.49168 -5.10474 1.7279
rshoulderjoint -2.72955 8.10888 -29.675
rhumerus 348.742 4.87817 -412.764
rradius 24.9762 2.70347e-014 -1.50281e-013
rwrist 1.29358e-013 5.26323 -3.17805e-013
rhand 6.49919 -4.66963 29.0529
lshoulderjoint -1.79957 -5.17924 30.1903
lhumerus 354.786 15.8796 414.037
lradius 13.5293 3.81667e-014 -8.98507e-014
lwrist 1.58371e-013 -10.2433 -1.68472e-013
lhand 8.89433 8.45529 -35.807
rfemur -18.6397 30.5152 9.31156
rtibia 11.108 -2.64384e-014 1.59028e-014
rfoot -169.106 -76.8372 163.162
rtoes 8.11041e-014 6.55989e-015 3.4191e-014
lfemur -39.6113 -17.4042 -1.52323
ltibia 52.2456 1.27222e-014 2.54444e-014
lfoot -12.8576 14.5555 8.70511
ltoes 4.45278e-014 -6.04305e-014 8.90555e-014
2427
root 9.19272 3.63864 0.0218681 332.768 52.8472 31.568
lowerback -20.9123 -1.46902 -9.90534
upperback -6.13506 0.32352 0.972414
thorax 4.891 0.267005 6.80744
lowerneck 15.2771 -7.81076 -1.2786
upperneck 2.77119 -10.3279 3.15076
head -1.44742 -5.19595 1.80812
rshoulderjoint -2.74993 8.14084 -29.7366
rhumerus 348.763 4.49101 -412.86
rradius 24.642 -2.22639e-014 2.94201e-014
rwrist -1.1293e-012 5.37685 1.8369e-013
rhand 6.63075 -4.71495 29.219
lshoulderjoint -1.80153 -5.17396 30.2278
lhumerus 354.596 16.3651 413.976
lradius 13.4396 -6.67916e-014 -7.05686e-014
lwrist -9.56592e-013 -10.7339 -2.83659e-013
lhand 9.12487 8.84371 -35.2716
rfemur -19.0409 32.0004 8.6451
rtibia 11.645 -3.02153e-014 3.18055e-015
rfoot -168.603 -76.8493 162.71
rtoes 1.54257e-013 1.39646e-013 2.5842e-014
lfemur -39.7524 -18.8275 -0.754617
ltibia 51.439 -6.36111e-015 2.06736e-014
lfoot -13.2655 14.3661 8.65253
ltoes 4.92986e-014 -1.90833e-014 -2.54444e-014
2428
root 9.19867 3.63966 0.0235098 334.465 51.4222 30.2908
lowerback -20.9323 -1.49618 -10.1363
upperback -6.17425 0.338976 0.84997
thorax 4.85176 0.275367 6.80837
lowerneck 15.4911 -7.91316 -1.20314
upperneck 2.76643 -10.4482 3.26166
head -1.48047 -5.26078 1.84924
rshoulderjoint -2.81049 8.39634 -29.5826
rhumerus 348.647 3.98375 -412.823
rradius 24.3123 -4.54819e-013 -2.44903e-013
rwrist 1.43805e-013 5.57591 -8.94789e-014
rhand 6.71085 -4.85081 29.4258
lshoulderjoint -1.8081 -5.19513 30.2201
lhumerus 354.349 16.8825 413.767
lradius 13.3263 -4.64361e-013 -9.64106e-014
lwrist 2.99423e-013 -10.7159 8.2139e-014
lhand 9.62134 8.85659 -34.6716
rfemur -19.4188 33.5224 7.88756
rtibia 12.1332 -3.99557e-014 -4.77083e-015
rfoot -168.258 -76.8605 162.394
rtoes 1.24042e-013 -6.42074e-014 1.20066e-013
lfemur -39.8083 -20.1579 -0.0678839
ltibia 50.515 2.22639e-014 3.18055e-015
lfoot -13.6492 14.1688 8.49472
ltoes 2.54444e-014 -4.6118e-014 3.18055e-014
2429
root 9.20553 3.64092 0.0249615 336.151 50.0175 29
lowerback -20.8693 -1.48614 -10.3316
upperback -6.14325 0.383542 0.754258
thorax 4.84123 0.291836 6.82462
lowerneck 15.4567 -8.00648 -1.28691
upperneck 2.80649 -10.5889 3.39175
head -1.44568 -5.33732 1.908
rshoulderjoint -2.84528 8.47856 -29.6285
rhumerus 348.586 3.76783 -412.892
rradius 24.0784 4.16653e-013 -3.10104e-014
rwrist 4.2189e-013 5.65938 -4.41066e-013
rhand 6.75633 -4.99872 29.7105
lshoulderjoint -1.79306 -5.15612 30.2051
lhumerus 354.19 17.317 413.682
lradius 13.1943 4.35736e-013 -9.99887e-014
lwrist 2.72127e-013 -10.9564 -3.38134e-013
lhand 10.06 9.12978 -34.1722
rfemur -19.6932 35.0374 7.16524
rtibia 12.6202 5.62561e-014 6.36111e-015
rfoot -167.846 -76.8554 162.008
rtoes -2.06736e-013 -7.39479e-014 -4.29375e-014
lfemur -39.7785 -21.5989 0.633832
ltibia 49.5292 -2.54444e-014 -2.70347e-014
lfoot -13.9141 13.8764 8.57619
ltoes -4.92986e-014 2.70347e-014 -6.67916e-014
2430
root 9.21196 3.64162 0.0259194 337.616 48.4243 27.9
lowerback -20.8991 -1.41985 -10.4118
upperback -6.14848 0.488748 0.658326
thorax 4.82998 0.340659 6.79054
lowerneck 15.4009 -8.08916 -1.41823
upperneck 2.83748 -10.7229 3.58381
head -1.40448 -5.41287 1.99302
rshoulderjoint -3.02085 8.9689 -29.7014
rhumerus 348.358 2.69074 -413.03
rradius 23.88 3.88028e-013 -3.10104e-014
rwrist 2.8782e-014 5.98781 -3.75765e-013
rhand 7.01272 -5.03257 29.9579
lshoulderjoint -1.7911 -5.15878 30.1765
lhumerus 354.025 17.7621 413.577
lradius 13.1556 3.78486e-013 -1.48293e-013
lwrist -5.1847e-014 -11.0319 -4.71078e-013
lhand 10.5038 9.25513 -33.7973
rfemur -20.1977 36.671 6.35573
rtibia 13.0806 4.77083e-015 2.38542e-015
rfoot -167.353 -76.8218 161.506
rtoes -4.77083e-015 4.4329e-014 -2.90226e-014
lfemur -39.8816 -22.9742 1.50584
ltibia 48.5044 -3.18055e-015 2.38542e-015
lfoot -14.0345 13.824 8.54892
ltoes -2.70347e-014 -1.74931e-014 1.59028e-014
2431
root 9.21932 3.64322 0.0268307 339.257 46.9744 26.6797
lowerback -20.7454 -1.35981 -10.5795
upperback -6.08844 0.585794 0.499681
thorax 4.79572 0.381961 6.73229
lowerneck 15.2682 -8.17599 -1.46002
upperneck 2.89382 -10.8492 3.744
head -1.34777 -5.48234 2.04713
rshoulderjoint -2.79126 8.27905 -29.7057
rhumerus 348.572 3.51097 -413.035
rradius 23.7001 1.39944e-013 1.18476e-013
rwrist -2.36673e-013 6.03612 1.23134e-013
rhand 6.85252 -5.25691 30.2004
lshoulderjoint -1.80955 -5.20219 30.2103
lhumerus 353.828 18.0907 413.495
lradius 13.1863 1.94014e-013 6.30147e-014
lwrist -2.87084e-013 -11.3402 -2.43291e-014
lhand 10.6228 9.60472 -33.6266
rfemur -20.4466 38.2191 5.57464
rtibia 13.5568 3.69739e-014 9.54166e-015
rfoot -167.249 -76.8019 161.428
rtoes -1.30403e-013 6.25178e-014 -2.54444e-014
lfemur -39.8001 -24.6238 2.26467
ltibia 47.4319 -1.59028e-014 -1.59028e-015
lfoot -13.9636 13.752 8.5392
ltoes -2.38542e-015 -2.8625e-014 -6.99722e-014
2432
root 9.22639 3.64419 0.0274621 340.707 45.3838 25.6103
lowerback -20.7585 -1.27701 -10.6386
upperback -5.97641 0.712261 0.344176
thorax 4.90252 0.427384 6.62658
lowerneck 15.0966 -8.25023 -1.49574
upperneck 2.84893 -10.9575 3.93006
head -1.31755 -5.54434 2.10939
rshoulderjoint -2.77086 8.21603 -29.7099
rhumerus 348.685 3.47322 -413.093
rradius 23.5673 -1.27222e-014 7.39479e-014
rwrist 4.95648e-014 5.9412 1.42299e-013
rhand 7.07023 -5.18575 30.4391
lshoulderjoint -1.83458 -5.25616 30.2719
lhumerus 353.713 19.5209 413.437
lradius 13.2303 4.13472e-014 1.16687e-013
lwrist 1.46342e-014 -12.036 2.0935e-013
lhand 11.0289 9.29634 -33.3725
rfemur -20.8869 39.8554 4.74108
rtibia 14.0665 1.15295e-014 2.38542e-015
rfoot -166.965 -76.7545 161.177
rtoes -5.88403e-014 5.24792e-014 -8.90555e-014
lfemur -39.8157 -26.1583 3.14631
ltibia 46.3654 -1.90833e-014 2.70347e-014
lfoot -13.8766 13.6742 8.2977
ltoes 6.2816e-014 -6.83819e-014 4.77083e-014
2433
root 9.23399 3.64461 0.0277914 342.093 43.6855 24.6449
lowerback -20.7277 -1.1562 -10.6892
upperback -5.95158 0.87937 0.188903
thorax 4.88374 0.504776 6.52385
lowerneck 15.017 -8.31529 -1.53977
upperneck 2.77969 -11.0537 4.08469
head -1.31273 -5.59982 2.16876
rshoulderjoint -2.72316 8.05035 -29.7594
rhumerus 348.705 3.42992 -413.206
rradius 23.4686 2.3218e-013 2.78299e-013
rwrist -4.91208e-013 6.32802 3.76006e-013
rhand 7.10844 -5.4161 30.6549
lshoulderjoint -1.87059 -5.35126 30.3
lhumerus 353.673 18.4765 413.405
lradius 13.3261 2.16278e-013 1.18674e-013
lwrist -5.86508e-013 -11.0265 1.53918e-014
lhand 10.7027 9.32345 -33.5915
rfemur -21.2764 40.9289 3.99623
rtibia 14.5355 7.23576e-014 4.77083e-015
rfoot -166.536 -76.7653 161.402
rtoes -2.22639e-013 2.14389e-013 -1.68967e-013
lfemur -39.8513 -27.4984 3.95934
ltibia 45.3262 -9.54166e-014 2.3059e-014
lfoot -14.056 13.3393 7.9871
ltoes -4.21423e-014 -1.90833e-014 -1.59028e-013
2434
root 9.24157 3.64518 0.0275878 343.389 41.9511 23.725
lowerback -20.649 -1.06784 -10.7147
upperback -5.93928 0.990191 0.0608099
thorax 4.83739 0.556712 6.42176
lowerneck 14.997 -8.33985 -1.50205
upperneck 2.68096 -11.0824 4.1747
head -1.33826 -5.61956 2.19576
rshoulderjoint -2.7474 8.13067 -29.7422
rhumerus 348.641 3.3879 -413.242
rradius 23.379 0 -3.81667e-014
rwrist 4.84345e-013 6.67808 -1.29692e-013
rhand 7.16507 -5.75274 30.8641
lshoulderjoint -1.87565 -5.3609 30.3162
lhumerus 353.503 18.3473 413.326
lradius 13.4013 9.54166e-015 2.90226e-014
lwrist 4.90673e-013 -10.8793 1.44125e-013
lhand 10.4657 9.34284 -33.7372
rfemur -21.6865 41.9548 3.29616
rtibia 15.0204 5.1684e-015 1.90833e-014
rfoot -166.378 -76.7938 161.972
rtoes -2.06736e-014 6.69904e-014 -4.13472e-014
lfemur -39.9345 -28.9873 4.91731
ltibia 44.3015 6.36111e-015 4.37326e-015
lfoot -14.1891 13.4067 7.55568
ltoes 3.4191e-014 1.59028e-014 7.31528e-014
